# xmcd
#
# Track frame offsets:
#	150
#	12899
#	25584
#	45553
#	59769
#	74208
#	87961
#	103176
#	115144
#	131892
#	148602
#	167737
#
# Disc length: 2462 seconds
#
# Revision: 5
# Processed by: cddbd v1.5.2PL0 Copyright (c) Steve Scherf et al.
# Submitted via: audiograbber 1.83.01
#
DISCID=ae099c0c
DTITLE=Micky &The Motorcars - Naive
DYEAR=2008
DGENRE=Country
TTITLE0=Naive
TTITLE1=Amber
TTITLE2=Long Enough To Leave
TTITLE3=Grow Old
TTITLE4=Don't Be Sad
TTITLE5=Misunderstood
TTITLE6=Bloodshot
TTITLE7=Seashell
TTITLE8=Everything I've Got
TTITLE9=Twilight
TTITLE10=Seeds
TTITLE11=Let's Split Out of Here
EXTD=YEAR: 2008
EXTT0=
EXTT1=
EXTT2=
EXTT3=
EXTT4=
EXTT5=
EXTT6=
EXTT7=
EXTT8=
EXTT9=
EXTT10=
EXTT11=
PLAYORDER=
